<svg width="40" height="40" viewBox="0 0 200 200" fill="none" xmlns="http://www.w3.org/2000/svg">
  <!-- Gota verde (esquerda) -->
  <path d="M70 100 C70 60, 40 40, 40 70 C40 100, 60 120, 80 120 C90 120, 95 115, 95 105 C95 95, 90 90, 80 90 C70 90, 65 95, 65 100" fill="#4A8B6A" />
  
  <!-- Gota laranja (direita) -->
  <path d="M130 40 C110 50, 100 70, 100 90 C100 120, 120 150, 150 150 C170 150, 185 135, 185 110 C185 85, 170 60, 150 50 C140 45, 135 42, 130 40" fill="url(#orangeGradient)" />
  
  <!-- Borda branca da gota laranja -->
  <path d="M115 90 C115 75, 125 65, 135 60 C145 65, 155 75, 155 90 C155 105, 145 120, 130 125 C120 122, 115 110, 115 90" fill="none" stroke="white" stroke-width="3" opacity="0.4" />
  
  <defs>
    <linearGradient id="orangeGradient" x1="130" y1="40" x2="150" y2="150">
      <stop offset="0%" style="stop-color:#F4A460;stop-opacity:1" />
      <stop offset="100%" style="stop-color:#E07B39;stop-opacity:1" />
    </linearGradient>
  </defs>
</svg>
